<?xml version="1.0" encoding="UTF-8"?>
<!DOCTYPE svg PUBLIC "-//W3C//DTD SVG 1.1//EN" "http://www.w3.org/Graphics/SVG/1.1/DTD/svg11.dtd">
<!-- Creator: CorelDRAW X7 -->
<svg xmlns="http://www.w3.org/2000/svg" xml:space="preserve" width="31.8668in" height="4.72995in" version="1.1" style="shape-rendering:geometricPrecision; text-rendering:geometricPrecision; image-rendering:optimizeQuality; fill-rule:evenodd; clip-rule:evenodd"
viewBox="0 0 178 26"
 xmlns:xlink="http://www.w3.org/1999/xlink">
 <defs>
  <style type="text/css">
   <![CDATA[
    .fil0 {fill:white;fill-rule:nonzero}
   ]]>
  </style>
 </defs>
 <g id="Layer_x0020_1">
  <metadata id="CorelCorpID_0Corel-Layer"/>
  <path class="fil0" d="M8 2l8 0c3,0 6,1 7,2 1,1 2,2 1,4 -1,1 -1,3 -2,4 -1,0 -2,1 -4,1l0 1c2,0 3,1 3,1 0,1 0,3 0,4 -1,2 -2,4 -4,5 -2,1 -5,2 -8,2l-9 0 8 -24zm3 9l2 0c1,0 2,0 3,0 0,-1 1,-1 1,-2 0,-1 0,-2 -2,-2l-2 0 -2 4zm-1 5l-2 5 2 0c2,0 4,-1 4,-2 1,-1 0,-2 0,-2 0,-1 -1,-1 -2,-1l-2 0zm21 10c-3,0 -5,0 -6,-2 -1,-2 -2,-4 -1,-7 1,-3 3,-6 5,-7 2,-2 5,-3 8,-3 3,0 5,1 6,2 1,2 1,4 0,7l-1 3 -12 0c0,1 0,1 1,2 0,1 1,1 2,1 2,0 3,0 4,0 1,-1 2,-1 3,-2l-1 5c-2,1 -3,1 -4,1 -1,0 -2,0 -4,0zm5 -14c-1,0 -2,0 -3,0 0,1 -1,1 -1,2l5 0c1,0 1,-1 0,-2 0,0 -1,0 -1,0zm13 14l-6 0 8 -25 7 0 -9 25zm11 0l-6 0 6 -19 6 0 -6 19zm1 -23c1,-1 1,-2 2,-2 1,-1 1,-1 3,-1 1,0 2,0 2,1 0,0 0,1 0,2 0,2 -2,3 -4,3 -2,0 -3,-1 -3,-3zm24 23l-7 0 6 -19 -6 0 2 -5 18 0 -2 5 -5 0 -6 19zm15 0c-3,0 -5,0 -6,-2 -2,-2 -2,-4 -1,-7 1,-3 3,-6 5,-7 2,-2 5,-3 8,-3 2,0 4,1 5,2 1,2 2,4 1,7l-1 3 -12 0c0,1 0,1 1,2 0,1 1,1 2,1 1,0 2,0 3,0 1,-1 3,-1 4,-2l-2 5c-1,1 -2,1 -3,1 -1,0 -3,0 -4,0zm4 -14c0,0 -1,0 -2,0 0,1 -1,1 -1,2l5 0c0,0 0,-1 0,-2 0,0 -1,0 -2,0zm17 4c2,-2 3,-3 3,-3l6 -6 7 0 -9 8 4 11 -8 0 -1 -7 -3 2 -2 5 -6 0 8 -25 7 0 -4 10c0,1 -1,3 -2,5l0 0zm25 10l3 -10c0,-1 1,-2 0,-3 0,0 0,-1 -1,-1 -1,0 -2,1 -3,1 -1,1 -1,3 -2,5l-3 8 -6 0 6 -19 5 0 0 3 0 0c1,-1 2,-2 3,-2 1,-1 3,-1 4,-1 2,0 3,1 4,2 1,1 1,3 0,5l-4 12 -6 0zm31 -9c-1,3 -2,5 -4,7 -3,2 -5,2 -8,2 -3,0 -5,0 -6,-2 -1,-2 -1,-4 0,-7 1,-3 2,-6 5,-7 2,-2 4,-3 7,-3 2,0 4,1 5,1 1,1 2,2 2,4 0,1 0,3 -1,5zm-12 0c0,1 0,3 0,3 0,1 0,2 1,2 1,0 2,-1 3,-2 1,0 1,-2 2,-3 0,-2 0,-3 0,-4 0,-1 0,-1 -1,-1 -1,0 -2,0 -3,1 -1,1 -1,2 -2,4z"/>
 </g>
</svg>
